<?xml version="1.0" encoding="UTF-8" standalone="no"?>
<!-- Created with Inkscape (http://www.inkscape.org/) -->

<svg
   width="210mm"
   height="297mm"
   viewBox="0 0 210 297"
   version="1.1"
   id="svg1"
   xml:space="preserve"
   inkscape:export-filename="bitmap.svg"
   inkscape:export-xdpi="120.95238"
   inkscape:export-ydpi="120.95238"
   xmlns:inkscape="http://www.inkscape.org/namespaces/inkscape"
   xmlns:sodipodi="http://sodipodi.sourceforge.net/DTD/sodipodi-0.dtd"
   xmlns="http://www.w3.org/2000/svg"
   xmlns:svg="http://www.w3.org/2000/svg"><sodipodi:namedview
     id="namedview1"
     pagecolor="#ffffff"
     bordercolor="#000000"
     borderopacity="0.25"
     inkscape:showpageshadow="2"
     inkscape:pageopacity="0.0"
     inkscape:pagecheckerboard="0"
     inkscape:deskcolor="#d1d1d1"
     inkscape:document-units="mm"
     inkscape:zoom="0.45394648"
     inkscape:cx="513.27636"
     inkscape:cy="425.16025"
     inkscape:window-width="1280"
     inkscape:window-height="449"
     inkscape:window-x="0"
     inkscape:window-y="23"
     inkscape:window-maximized="0"
     inkscape:current-layer="layer1" /><defs
     id="defs1" /><g
     inkscape:label="Layer 1"
     inkscape:groupmode="layer"
     id="layer1"><g
       id="g29"
       transform="translate(-7.0290817,19.525217)"><path
         style="display:inline;fill:#ff0000;stroke:#023500;stroke-width:2.1;stroke-dasharray:none;stroke-opacity:1;paint-order:stroke fill markers"
         d="M 109.53665,112.81738 V 74.840545 63.815009 c 0,-1.44422 0.39662,-3.54022 -0.15717,-4.89709 -0.49209,-1.20572 -2.15106,-1.73961 -3.23047,-2.33638 -2.82955,-1.56434 -5.63947,-3.16256 -8.469096,-4.72694 l -10.586369,-5.88897 c -1.48935,-0.82339 -3.34961,-2.31611 -5.08145,-2.52165 -2.182581,-0.25903 -5.165221,2.27815 -6.987011,3.27755 -4.66839,2.56098 -9.30963,5.16461 -13.97401,7.73207 -2.028559,1.11661 -5.132419,2.21525 -6.683459,3.91576 -1.45935,1.59999 -0.51527,6.648672 -0.51527,8.712482 v 24.092834 40.018605 10.61719 c 0,1.23069 -0.38411,3.20264 0.36889,4.26643 0.62245,0.87938 1.8843,1.33846 2.80702,1.86107 2.10661,1.19312 4.229559,2.35941 6.351819,3.52614 7.14416,3.92754 14.2714,7.89051 21.384471,11.87154 5.56259,3.11326 11.148059,6.18705 16.726465,9.2749 1.82357,1.0094 4.54813,3.36557 6.77528,2.7589 1.63942,-0.44659 3.19015,-1.62663 4.658,-2.43816 3.03915,-1.6802 6.09055,-3.34499 9.10428,-5.0672 8.54295,-4.88195 17.2159,-9.56678 25.83075,-14.32955 3.18199,-1.75916 6.34574,-3.5494 9.52774,-5.30859 1.16903,-0.6463 3.03517,-1.27067 3.5974,-2.54433 0.75191,-1.70334 0.21369,-4.48825 0.21369,-6.32127 v -14.49654 c 0,-1.7353 -0.75773,-5.68013 0.33948,-7.1027 1.15343,-1.49546 4.13633,-2.47621 5.80062,-3.39633 4.52406,-2.50116 9.06431,-4.9858 13.55054,-7.54949 1.71708,-0.98125 4.93173,-2.00818 5.86107,-3.80137 0.89256,-1.72226 0.27903,-4.838726 0.27903,-6.734836 V 79.944965 c 0,-1.99228 0.72935,-5.66651 -0.56167,-7.33129 -1.04238,-1.34415 -3.24715,-2.1193 -4.73152,-2.93488 -3.53488,-1.94223 -7.07798,-3.878934 -10.58637,-5.865996 -2.81166,-1.59245 -5.63718,-3.16578 -8.46909,-4.72457 -1.17687,-0.6478 -2.58914,-1.72631 -4.02282,-1.55606 -2.19808,0.26101 -4.66278,2.3249 -6.56355,3.36702 -4.95493,2.71661 -9.87959,5.485832 -14.82092,8.224426 -1.68009,0.93114 -5.70683,2.26164 -6.09174,4.28786 -0.38973,2.05165 -0.0483,4.44799 -0.0483,6.53349 v 13.27147 c 0,1.903119 0.78373,5.858849 -0.21761,7.511685 -0.94754,1.56405 -4.3183,2.69167 -5.92249,3.5712 -5.11492,2.80434 -10.12622,6.11833 -15.45611,8.51806 m -6.5636,-53.290081 v 0.40835 c -5.242726,2.66295 -10.309065,5.711572 -15.456095,8.544716 -1.48772,0.8189 -4.17611,3.0851 -5.92837,2.96938 -1.900331,-0.12549 -4.490711,-2.29588 -6.140091,-3.20019 -5.01602,-2.750124 -9.92699,-5.720576 -15.032649,-8.313906 1.278359,-1.43905 3.594749,-2.30122 5.293179,-3.2361 3.60517,-1.98443 7.19285,-3.99899 10.7981,-5.98256 1.32175,-0.72722 3.93132,-2.91523 5.504921,-2.61791 1.9777,0.37369 4.18761,2.21276 5.92836,3.17514 4.91849,2.71923 9.828619,6.09057 15.032645,8.25308 m 77.28051,14.088186 v 0.40836 c -5.24683,2.66505 -10.3059,5.70983 -15.45609,8.54469 -1.44883,0.79749 -4.23378,3.10829 -5.92837,2.96434 -1.88989,-0.16053 -4.50063,-2.30687 -6.1401,-3.22444 -4.89664,-2.74053 -9.83699,-6.12555 -15.03264,-8.28459 v -0.40836 c 5.27124,-2.19045 10.26503,-5.61156 15.24437,-8.371244 1.49836,-0.830412 4.39652,-3.208042 6.1401,-3.125342 1.86892,0.0886 4.52623,2.31912 6.14009,3.211362 4.95728,2.740684 9.85879,5.953084 15.03264,8.285224 M 58.298615,63.406649 c 4.929559,2.909432 10.021479,5.593966 15.032649,8.371256 1.59492,0.88393 4.95787,2.00378 5.92249,3.53812 0.60552,0.96314 0.21761,2.92085 0.21761,4.01641 v 9.80047 29.197255 8.57542 c 0,1.33911 -0.27018,3.01145 0.21859,4.2877 0.79547,2.07711 4.469571,3.28615 6.344961,4.31843 4.29511,2.36421 8.580679,4.75714 12.915369,7.05308 1.750796,0.92734 4.740326,1.93951 6.012336,3.43728 1.03475,1.2184 0.33948,4.89358 0.33948,6.42558 v 17.355 l -12.068455,-6.56436 -22.654841,-12.58727 -8.68082,-4.79437 -3.593489,-2.25572 -0.2176,-5.44564 V 124.25128 81.374195 68.919435 l 0.21172,-5.512786 m 47.003485,0 v 37.568491 10.20883 c 0,1.11244 0.38381,3.05555 -0.2176,4.04005 -0.89626,1.46718 -4.19621,2.58018 -5.710766,3.42785 -5.017939,2.80843 -10.106059,6.2985 -15.456099,8.45788 V 89.541265 79.332435 c 0,-1.09557 -0.38792,-3.05327 0.21761,-4.01641 0.95346,-1.5166 4.34142,-2.66186 5.92249,-3.53812 5.021229,-2.78287 9.998515,-6.009424 15.244365,-8.371256 m 30.27703,14.088196 c 5.0258,2.57957 9.87137,5.51073 14.82092,8.22441 1.65857,0.90934 5.04737,2.02441 6.13422,3.54316 0.91085,1.27281 0.2176,4.87325 0.2176,6.404139 v 17.150826 c -5.27884,-2.19359 -10.25651,-5.64081 -15.24437,-8.40179 -1.60917,-0.89074 -4.92591,-1.98007 -5.92249,-3.5178 -0.80275,-1.238626 -0.2176,-4.201126 -0.2176,-5.639586 V 83.007615 c 0,-1.63492 -0.44569,-4.00198 0.21172,-5.51277 m 47.00348,0 v 16.94665 c 0,1.666829 0.66891,5.038939 -0.21761,6.490165 -0.89626,1.46719 -4.1962,2.58018 -5.71076,3.42784 -5.01662,2.80767 -10.10747,6.29906 -15.45609,8.45788 V 95.870734 c 0,-1.642049 -0.67334,-5.047289 0.21761,-6.466529 0.94548,-1.5061 4.15271,-2.55858 5.71076,-3.41996 5.05555,-2.795 10.1066,-6.26643 15.45609,-8.4894 m -28.15974,38.793545 v 0.40836 c -11.53159,5.91863 -22.74087,12.51106 -34.08812,18.75352 l -9.10428,4.98831 c -1.02444,0.56287 -2.58228,1.90269 -3.81109,1.84295 -1.92101,-0.0934 -4.69174,-2.32768 -6.35183,-3.24352 -4.875326,-2.68962 -9.733685,-5.75845 -14.820915,-8.0489 v -0.40836 c 4.66175,-2.10135 9.097709,-4.97573 13.550559,-7.46788 6.616466,-3.70309 13.318406,-7.27653 19.902376,-11.03121 3.15544,-1.79947 6.34741,-3.54529 9.52774,-5.30356 1.07987,-0.59702 2.74694,-1.96708 4.02282,-1.96708 1.86669,0 4.76563,2.35837 6.35182,3.26934 4.87959,2.80241 9.80832,5.63528 14.82092,8.20803 m 2.329,3.87936 v 16.5383 c 0,1.83644 0.68038,5.19822 -0.12775,6.86245 -0.43759,0.90117 -2.19911,1.47049 -3.04816,1.95811 -2.86822,1.64725 -5.78165,3.23256 -8.68082,4.82855 -7.99044,4.39873 -15.93481,8.87327 -23.92521,13.27148 -3.56579,1.96274 -7.4976,5.0396 -11.43328,6.15601 v -17.15083 c 0,-1.60338 -0.68303,-5.08642 0.21761,-6.45409 0.67365,-1.023 2.73754,-1.71859 3.80521,-2.32329 3.28419,-1.86009 6.60569,-3.71329 9.9512,-5.46787 11.12811,-5.83625 21.7672,-13.05274 33.2412,-18.21882"
         id="path1"
         inkscape:label="text"
         sodipodi:nodetypes="ccsssccsssssccssssssscsssssssssssssssssssssssscccssscsssccccsssccscsccsssccssssssccccccccccccsssccscsccssscssssccssscssscccccssccsssssccssssscssssc" /><path
         style="fill:#006233;fill-opacity:1;stroke:#023500;stroke-width:12.4999;stroke-dasharray:none;stroke-opacity:1;paint-order:stroke fill markers"
         d="m 385.05992,630.87915 c -3.46475,-2.02263 -36.77362,-20.49406 -74.0197,-41.04764 -37.24608,-20.55359 -72.13714,-39.95488 -77.53568,-43.11396 l -9.81553,-5.7438 -0.0275,-147.71206 -0.0275,-147.71206 6.69327,3.83516 c 18.94312,10.85417 33.65484,18.87504 45.50865,24.81145 7.23575,3.62367 15.14285,7.9789 17.57134,9.67828 l 4.41545,3.08977 -0.27003,104.55588 c -0.29406,113.86207 -0.64663,109.04938 8.39111,114.53883 4.59162,2.78891 51.26917,27.80629 70.45427,37.76079 8.22878,4.26965 15.8473,8.47471 16.93004,9.34458 2.8533,2.29236 2.8533,81.54279 0,81.45372 -1.08274,-0.0338 -4.80341,-1.71633 -8.26816,-3.73894 z"
         id="path19"
         transform="scale(0.26458333)" /><path
         style="fill:#006233;fill-opacity:1;stroke:#023500;stroke-width:12.4999;stroke-dasharray:none;stroke-opacity:1;paint-order:stroke fill markers"
         d="m 417.00592,598.52641 c -0.24654,-20.75041 -0.0656,-39.33843 0.40214,-41.3067 0.62994,-2.65094 6.34581,-6.58958 22.04842,-15.19292 40.11419,-21.97825 65.35379,-36.1022 90.43163,-50.60505 13.82522,-7.99531 32.60575,-18.31843 41.7345,-22.94026 l 16.59776,-8.40333 0.80993,38.08547 c 0.44546,20.94701 0.5503,39.28623 0.23297,40.75382 -0.35602,1.64656 -25.39199,16.38419 -65.3803,38.48666 -35.64185,19.70007 -71.01181,39.57246 -78.59992,44.16086 -13.65003,8.25392 -25.49344,14.68946 -27.03323,14.68946 -0.43761,0 -0.99737,-16.97761 -1.2439,-37.72801 z"
         id="path21"
         transform="scale(0.26458333)" /><path
         style="fill:#006233;fill-opacity:1;stroke:#023500;stroke-width:12.4999;stroke-dasharray:none;stroke-opacity:1;paint-order:stroke fill markers"
         d="m 612.29288,383.74505 c -0.24706,-20.2124 -0.0949,-38.72544 0.33824,-41.14008 0.64948,-3.6211 2.99477,-5.5335 13.38654,-10.91566 6.9295,-3.58897 19.33174,-10.49735 27.56052,-15.35194 17.23205,-10.16611 31.55561,-17.5759 32.38056,-16.75095 0.31329,0.31329 0.66204,18.10482 0.77499,39.53673 0.15612,29.62127 -0.27875,39.55045 -1.81315,41.39929 -1.11019,1.33769 -6.31312,4.59016 -11.56208,7.2277 -5.24895,2.63755 -17.08491,9.26133 -26.30214,14.71951 -16.12683,9.54986 -31.89244,18.02523 -33.52996,18.02523 -0.43137,0 -0.98645,-16.53742 -1.23352,-36.74983 z"
         id="path23"
         transform="scale(0.26458333)" /><path
         style="fill:#006233;fill-opacity:1;stroke:#023500;stroke-width:12.4999;stroke-dasharray:none;stroke-opacity:1;paint-order:stroke fill markers"
         d="m 575.62127,306.22402 c -12.12663,-7.38626 -27.54014,-16.41126 -34.25225,-20.05556 -6.7121,-3.64429 -12.20452,-7.00987 -12.20537,-7.47907 -8.6e-4,-0.4692 3.71912,-2.68054 8.2666,-4.91409 4.54749,-2.23355 20.30726,-11.23992 35.02171,-20.01416 14.71445,-8.77425 27.5312,-15.95317 28.48168,-15.95317 0.95047,0 7.49171,3.50063 14.53608,7.77919 7.04437,4.27856 23.13045,13.607 35.74683,20.72987 l 22.93889,12.95067 -16.9819,9.39128 c -9.34004,5.16521 -25.20534,14.26295 -35.25621,20.2172 -10.05088,5.95426 -19.61832,10.81501 -21.26098,10.80167 -1.64266,-0.0133 -12.90845,-6.06756 -25.03508,-13.45383 z"
         id="path24"
         transform="scale(0.26458333)" /><text
         xml:space="preserve"
         style="font-size:36.6889px;fill:#006233;fill-opacity:1;stroke:#023500;stroke-width:2.9;stroke-linejoin:round;stroke-dasharray:none;stroke-opacity:1;paint-order:stroke fill markers"
         x="37.181282"
         y="202.49779"
         id="text26"><tspan
           sodipodi:role="line"
           style="font-style:normal;font-variant:normal;font-weight:normal;font-stretch:normal;font-size:36.6889px;font-family:وسيم;-inkscape-font-specification:وسيم;fill:#ff0000;stroke-width:2.9;stroke-linejoin:round;stroke-dasharray:none;paint-order:stroke fill markers"
           x="37.181282"
           y="202.49779"
           id="tspan28">لارافيل المغرب</tspan></text></g></g></svg>
