<?xml version="1.0" encoding="UTF-8" standalone="no"?>
<!-- Created with Inkscape (http://www.inkscape.org/) -->

<svg
   width="210.00002mm"
   height="296.99997mm"
   viewBox="0 0 210.00002 296.99997"
   version="1.1"
   id="svg1"
   xml:space="preserve"
   inkscape:export-filename="logo.svg"
   inkscape:export-xdpi="120.95238"
   inkscape:export-ydpi="120.95238"
   xmlns:inkscape="http://www.inkscape.org/namespaces/inkscape"
   xmlns:sodipodi="http://sodipodi.sourceforge.net/DTD/sodipodi-0.dtd"
   xmlns="http://www.w3.org/2000/svg"
   xmlns:svg="http://www.w3.org/2000/svg"><sodipodi:namedview
     id="namedview1"
     pagecolor="#ffffff"
     bordercolor="#000000"
     borderopacity="0.25"
     inkscape:showpageshadow="2"
     inkscape:pageopacity="0.0"
     inkscape:pagecheckerboard="0"
     inkscape:deskcolor="#d1d1d1"
     inkscape:document-units="mm"
     inkscape:zoom="0.45394648"
     inkscape:cx="513.27636"
     inkscape:cy="425.16025"
     inkscape:window-width="1280"
     inkscape:window-height="449"
     inkscape:window-x="0"
     inkscape:window-y="23"
     inkscape:window-maximized="0"
     inkscape:current-layer="layer1" /><defs
     id="defs1" /><g
     inkscape:label="Layer 1"
     inkscape:groupmode="layer"
     id="layer1"
     transform="translate(-50.486533,-80.791607)"><path
       style="display:inline;fill:#ff0000;stroke:#023500;stroke-width:1.54101;stroke-dasharray:none;stroke-opacity:1;paint-order:stroke fill markers"
       d="m 108.5025,136.90726 v -27.80547 -8.07256 c 0,-1.057408 0.2917,-2.592034 -0.11559,-3.585492 -0.36191,-0.882791 -1.58203,-1.273689 -2.3759,-1.710626 -2.08103,-1.145361 -4.14763,-2.315528 -6.228724,-3.460919 l -7.785905,-4.311722 c -1.095365,-0.602861 -2.463521,-1.695784 -3.737229,-1.846274 -1.605213,-0.189654 -3.79884,1.667991 -5.138703,2.399721 -3.433439,1.87507 -6.846909,3.781368 -10.277398,5.661182 -1.491934,0.817548 -3.774715,1.621938 -4.915451,2.866999 -1.073301,1.171463 -0.378963,4.867951 -0.378963,6.379011 v 17.64003 29.30038 7.77358 c 0,0.90108 -0.282499,2.34488 0.271306,3.12375 0.45779,0.64386 1.385837,0.97998 2.064465,1.36262 1.549338,0.87356 3.110693,1.72749 4.671542,2.58173 5.25428,2.87562 10.496117,5.77719 15.727533,8.69197 4.091091,2.27944 8.199008,4.52997 12.301727,6.7908 1.34118,0.73905 3.345,2.46417 4.98299,2.01998 1.20573,-0.32698 2.34624,-1.19097 3.4258,-1.78515 2.23518,-1.23019 4.47938,-2.44909 6.69588,-3.71004 6.28303,-3.57442 12.66169,-7.0045 18.99761,-10.49166 2.34024,-1.288 4.66707,-2.59876 7.00732,-3.88678 0.85978,-0.4732 2.23226,-0.93035 2.64576,-1.86288 0.553,-1.24713 0.15716,-3.28616 0.15716,-4.62824 v -10.61392 c 0,-1.27053 -0.55728,-4.15881 0.24968,-5.20038 0.84831,-1.09493 3.04212,-1.813 4.26615,-2.48668 3.32729,-1.83128 6.66649,-3.65045 9.96595,-5.52751 1.26285,-0.71844 3.62712,-1.47032 4.31061,-2.78324 0.65645,-1.26099 0.20522,-3.54277 0.20522,-4.93104 v -11.95934 c 0,-1.45869 0.53641,-4.14884 -0.41309,-5.36774 -0.76663,-0.98415 -2.38816,-1.55169 -3.47987,-2.14883 -2.59978,-1.42204 -5.2056,-2.84004 -7.7859,-4.2949 -2.06788,-1.165945 -4.14595,-2.317889 -6.22872,-3.459187 -0.86555,-0.474299 -1.90422,-1.263951 -2.95865,-1.139299 -1.61661,0.191104 -3.42931,1.70222 -4.82726,2.465228 -3.64418,1.989018 -7.26609,4.016558 -10.90027,6.021668 -1.23565,0.68175 -4.19717,1.65591 -4.48026,3.13944 -0.28663,1.50216 -0.0355,3.25668 -0.0355,4.78362 v 9.71696 c 0,1.3934 0.5764,4.28967 -0.16005,5.49983 -0.69688,1.14514 -3.17595,1.97075 -4.35578,2.61472 -3.76184,2.05325 -7.44748,4.47965 -11.36743,6.23666 m -4.8273,-39.017353 v 0.298981 c -3.855842,1.949732 -7.581958,4.181832 -11.367419,6.256172 -1.094166,0.59958 -3.071383,2.25882 -4.36011,2.17409 -1.397627,-0.0919 -3.302761,-1.68097 -4.515822,-2.34308 -3.689108,-2.01355 -7.300955,-4.18843 -11.05599,-6.087182 0.940189,-1.053628 2.643813,-1.684882 3.892949,-2.369372 2.651477,-1.452939 5.29009,-2.927937 7.941626,-4.380246 0.972101,-0.532448 2.891349,-2.134441 4.048678,-1.916753 1.454529,0.273605 3.079841,1.620115 4.360102,2.32474 3.617378,1.990936 7.228606,4.459327 11.055986,6.04265 m 56.8371,10.314933 v 0.29899 c -3.85886,1.95127 -7.57963,4.18056 -11.36742,6.25616 -1.06556,0.58389 -3.11379,2.27579 -4.36011,2.17039 -1.38994,-0.11753 -3.31005,-1.68902 -4.51583,-2.36083 -3.6013,-2.00653 -7.23476,-4.48494 -11.05598,-6.06572 v -0.29899 c 3.87681,-1.60378 7.54957,-4.10861 11.2117,-6.12917 1.102,-0.608 3.23349,-2.348824 4.51583,-2.288274 1.37453,0.06487 3.32889,1.697984 4.51583,2.351264 3.6459,2.00664 7.25079,4.35866 11.05598,6.06618 m -89.693646,-7.47459 c 3.625519,2.13019 7.370448,4.09573 11.055989,6.12917 1.173008,0.64719 3.646341,1.46711 4.355785,2.5905 0.445339,0.70518 0.160044,2.13856 0.160044,2.94069 v 7.1756 21.37734 6.27865 c 0,0.98046 -0.198707,2.20489 0.160766,3.13932 0.58504,1.5208 3.287213,2.40602 4.666497,3.16182 3.158904,1.73101 6.310791,3.48304 9.498805,5.16405 1.28765,0.67897 3.48634,1.42005 4.42186,2.51667 0.76103,0.89208 0.24968,3.58293 0.24968,4.70461 v 12.7068 l -8.87593,-4.80622 -16.661845,-9.21601 -6.384441,-3.51029 -2.642886,-1.65157 -0.160037,-3.98713 v -10.16544 -31.39328 -9.11899 l 0.155713,-4.03629 m 34.569426,0 v 27.50649 7.47459 c 0,0.81449 0.28228,2.23717 -0.16004,2.958 -0.65917,1.07422 -3.08616,1.88912 -4.20007,2.50976 -3.690517,2.05625 -7.432652,4.61157 -11.36742,6.1926 v -27.50649 -7.47459 c 0,-0.80214 -0.285302,-2.23551 0.160044,-2.94069 0.701237,-1.1104 3.192963,-1.94893 4.355785,-2.5905 3.692939,-2.03753 7.353561,-4.39991 11.211701,-6.12917 m 22.2677,10.31494 c 3.6963,1.88868 7.26004,4.03478 10.90027,6.02166 1.21982,0.66579 3.71216,1.48221 4.5115,2.59419 0.6699,0.93191 0.16004,3.56804 0.16004,4.68891 v 12.55731 c -3.8824,-1.60608 -7.54331,-4.13003 -11.2117,-6.15153 -1.18349,-0.65218 -3.62284,-1.44975 -4.35579,-2.57563 -0.59039,-0.90688 -0.16004,-3.07593 -0.16004,-4.12913 v -8.9695 c 0,-1.19704 -0.32779,-2.93013 0.15572,-4.03628 m 34.56942,0 V 123.453 c 0,1.2204 0.49196,3.68936 -0.16005,4.7519 -0.65917,1.07423 -3.08616,1.88913 -4.20006,2.50976 -3.68955,2.05569 -7.43369,4.61198 -11.36742,6.1926 v -12.40782 c 0,-1.20225 -0.49522,-3.69546 0.16005,-4.73459 0.69536,-1.10272 3.05417,-1.87331 4.20006,-2.50399 3.71818,-2.04641 7.43305,-4.58808 11.36742,-6.21567 m -20.71051,28.40343 v 0.29899 c -8.48108,4.33344 -16.72512,9.16021 -25.07062,13.73075 l -6.69588,3.65229 c -0.75344,0.41211 -1.89918,1.39309 -2.80292,1.34935 -1.41284,-0.0684 -3.45062,-1.70426 -4.67156,-2.37481 -3.585628,-1.96925 -7.158782,-4.21616 -10.900262,-5.89315 v -0.29899 c 3.428555,-1.53855 6.691048,-3.64308 9.965962,-5.46775 4.86618,-2.71129 9.79523,-5.32765 14.63751,-8.07671 2.32071,-1.31752 4.6683,-2.59576 7.00731,-3.88311 0.79421,-0.43712 2.02028,-1.44023 2.95865,-1.44023 1.37288,0 3.50495,1.72672 4.67154,2.39371 3.58877,2.05184 7.21368,4.12598 10.90027,6.00966 m 1.7129,2.84035 v 12.10883 c 0,1.34459 0.50039,3.80598 -0.094,5.02448 -0.32183,0.65981 -1.61737,1.07664 -2.24181,1.43367 -2.10948,1.20606 -4.25221,2.36678 -6.38444,3.53531 -5.87669,3.22061 -11.7195,6.49673 -17.59616,9.71697 -2.62251,1.43706 -5.51422,3.68984 -8.40878,4.50724 v -12.55731 c 0,-1.17394 -0.50234,-3.72412 0.16005,-4.72548 0.49544,-0.74901 2.01336,-1.2583 2.7986,-1.70105 2.41541,-1.3619 4.85825,-2.71875 7.31876,-4.0034 8.18433,-4.27312 16.00901,-9.55681 24.44774,-13.33926"
       id="path1"
       inkscape:label="text"
       sodipodi:nodetypes="ccsssccsssssccssssssscsssssssssssssssssssssssscccssscsssccccsssccscsccsssccssssssccccccccccccsssccscsccssscssssccssscssscccccssccsssssccssssscssssc" /><path
       style="fill:#006233;fill-opacity:1;stroke:#023500;stroke-width:2.42693;stroke-dasharray:none;stroke-opacity:1;paint-order:stroke fill markers"
       d="m 102.87162,176.5196 c -0.67421,-0.39182 -7.155842,-3.9701 -14.403624,-7.95174 -7.247782,-3.98164 -14.037297,-7.74004 -15.087809,-8.35202 l -1.910022,-1.11269 -0.0054,-28.61475 -0.0054,-28.61473 1.302456,0.74294 c 3.686177,2.10267 6.548957,3.65647 8.855611,4.80647 1.408018,0.70198 2.946675,1.54567 3.419239,1.87488 l 0.85921,0.59854 -0.05254,20.25454 c -0.05722,22.05733 -0.12583,21.12502 1.632841,22.18843 0.893492,0.54027 9.97656,5.38663 13.709828,7.31501 1.60125,0.82712 3.08375,1.64172 3.29444,1.81023 0.55523,0.44408 0.55523,15.79645 0,15.77919 -0.21069,-0.007 -0.9347,-0.33248 -1.60891,-0.7243 z"
       id="path19" /><path
       style="fill:#006233;fill-opacity:1;stroke:#023500;stroke-width:2.42693;stroke-dasharray:none;stroke-opacity:1;paint-order:stroke fill markers"
       d="m 109.08805,170.25224 c -0.048,-4.01976 -0.0128,-7.62064 0.0783,-8.00193 0.12258,-0.51354 1.23485,-1.27653 4.29045,-2.94317 7.80589,-4.25762 12.71731,-6.9937 17.59725,-9.80319 2.69027,-1.54885 6.34481,-3.54864 8.12119,-4.44398 l 3.22979,-1.62789 0.15761,7.3779 c 0.0867,4.05785 0.10708,7.61052 0.0453,7.89482 -0.0693,0.31897 -4.94107,3.17394 -12.72247,7.45563 -6.93561,3.81629 -13.81831,7.66596 -15.2949,8.55482 -2.65618,1.59895 -4.96082,2.84565 -5.26044,2.84565 -0.0852,0 -0.19409,-3.2889 -0.24206,-7.30866 z"
       id="path21" /><path
       style="fill:#006233;fill-opacity:1;stroke:#023500;stroke-width:2.42693;stroke-dasharray:none;stroke-opacity:1;paint-order:stroke fill markers"
       d="m 147.0893,128.64485 c -0.0481,-3.91554 -0.0185,-7.50189 0.0658,-7.96965 0.12638,-0.70147 0.58276,-1.07195 2.60491,-2.11458 1.34843,-0.69525 3.7618,-2.03354 5.36305,-2.97397 3.35322,-1.96938 6.14047,-3.4048 6.301,-3.24499 0.061,0.0607 0.12882,3.50726 0.1508,7.65905 0.0304,5.73822 -0.0543,7.6617 -0.35282,8.01985 -0.21604,0.25914 -1.22848,0.88921 -2.24989,1.40015 -1.0214,0.51095 -3.32458,1.7941 -5.11818,2.85146 -3.13815,1.85 -6.20601,3.49184 -6.52465,3.49184 -0.084,0 -0.19196,-3.20362 -0.24004,-7.11916 z"
       id="path23" /><path
       style="fill:#006233;fill-opacity:1;stroke:#023500;stroke-width:2.42693;stroke-dasharray:none;stroke-opacity:1;paint-order:stroke fill markers"
       d="m 139.9533,113.6275 c -2.35974,-1.43087 -5.35909,-3.17919 -6.66521,-3.88516 -1.30612,-0.70597 -2.3749,-1.35795 -2.37506,-1.44885 -1.7e-4,-0.0909 0.72371,-0.51927 1.60861,-0.95195 0.8849,-0.43269 3.95163,-2.1774 6.81493,-3.87714 2.86332,-1.69975 5.35735,-3.09044 5.54231,-3.09044 0.18495,0 1.45782,0.67814 2.8286,1.50698 1.37078,0.82884 4.501,2.63594 6.95604,4.01578 l 4.46372,2.5088 -3.30454,1.81928 c -1.81749,1.0006 -4.90475,2.76301 -6.86056,3.91647 -1.95583,1.15346 -3.81757,2.09508 -4.13722,2.0925 -0.31964,-0.003 -2.51188,-1.17541 -4.87162,-2.60627 z"
       id="path24" /></g></svg>
